<?xml version="1.0" standalone="no"?>
<!DOCTYPE svg PUBLIC "-//W3C//DTD SVG 20010904//EN"
 "http://www.w3.org/TR/2001/REC-SVG-20010904/DTD/svg10.dtd">
<svg version="1.0" xmlns="http://www.w3.org/2000/svg"
 width="512.000000pt" height="512.000000pt" viewBox="0 0 512.000000 512.000000"
 preserveAspectRatio="xMidYMid meet">

<g transform="translate(0.000000,512.000000) scale(0.100000,-0.100000)"
fill="#000000" stroke="none">
<path d="M1187 4949 c-185 -44 -316 -220 -305 -411 9 -149 96 -275 236 -341
l67 -32 1360 -5 c1041 -4 1366 -8 1387 -17 51 -23 116 -92 132 -140 31 -92 15
-172 -47 -241 -74 -80 -42 -76 -673 -82 l-560 -5 -76 -37 c-91 -45 -148 -104
-191 -196 -29 -62 -32 -77 -35 -194 l-4 -128 -640 0 c-715 0 -771 -4 -955 -65
-201 -67 -351 -160 -504 -314 -186 -185 -298 -392 -355 -651 -17 -74 -19 -131
-19 -450 0 -402 4 -441 67 -620 109 -307 346 -578 633 -722 189 -96 349 -132
575 -132 171 0 222 7 369 50 329 99 624 348 772 653 l44 90 95 0 95 0 44 -90
c148 -305 443 -554 772 -653 147 -43 198 -50 369 -50 183 0 271 14 420 66 188
67 335 160 481 307 182 181 290 376 351 631 18 74 21 129 25 411 6 376 -4 483
-63 659 -142 425 -486 737 -934 848 l-105 26 -687 3 -688 4 0 96 c0 117 12
162 61 217 75 84 42 80 674 86 527 5 563 7 608 25 197 81 302 301 236 497 -38
114 -106 188 -219 242 l-65 31 -1360 5 c-1517 6 -1393 -1 -1467 76 -91 95 -89
236 4 331 74 76 43 73 845 73 l714 0 24 25 c16 15 25 36 25 55 0 19 -9 40 -25
55 l-24 25 -723 -1 c-398 -1 -740 -5 -761 -10z m2816 -2004 c417 -63 771 -361
901 -760 212 -651 -210 -1339 -890 -1451 -115 -19 -287 -15 -400 10 -345 74
-637 305 -785 620 -21 46 -39 88 -39 94 0 5 -12 21 -26 36 l-27 26 -177 0
-177 0 -27 -26 c-14 -15 -26 -31 -26 -36 0 -5 -16 -43 -35 -85 -105 -226 -293
-421 -515 -533 -149 -75 -283 -109 -460 -117 -345 -16 -683 138 -908 412 -91
112 -181 288 -219 430 -24 90 -26 117 -26 275 0 158 2 185 26 275 115 429 478
762 907 830 132 21 2765 21 2903 0z m-1373 -1705 l0 -120 -70 0 -70 0 0 120 0
120 70 0 70 0 0 -120z m-2225 -328 c142 -135 293 -225 478 -287 390 -130 830
-57 1159 190 80 61 190 168 255 250 l32 40 1 -28 c1 -76 -141 -308 -260 -427
-410 -406 -1044 -439 -1493 -79 -170 137 -306 341 -372 559 -4 14 20 -12 53
-56 34 -45 100 -118 147 -162z m4482 140 c-231 -617 -933 -903 -1525 -622
-234 111 -429 308 -537 543 -19 42 -35 88 -35 104 l1 28 32 -40 c115 -145 274
-278 426 -358 170 -90 400 -147 591 -147 179 0 407 53 562 131 167 83 360 244
463 387 28 38 51 68 53 67 2 -2 -12 -43 -31 -93z"/>
<path d="M1200 2467 c-49 -16 -133 -102 -148 -153 -7 -23 -12 -85 -12 -138 l0
-96 -96 0 c-128 0 -168 -13 -229 -75 -102 -101 -102 -229 0 -330 61 -62 101
-75 229 -75 l96 0 0 -96 c0 -121 13 -164 67 -224 96 -107 250 -107 346 0 54
60 67 103 67 224 l0 96 96 0 c128 0 168 13 229 75 102 101 102 229 0 330 -61
62 -101 75 -229 75 l-96 0 0 96 c0 128 -13 168 -75 229 -70 71 -152 91 -245
62z m135 -172 c24 -23 25 -28 25 -175 0 -147 1 -152 25 -175 23 -24 28 -25
175 -25 147 0 152 -1 175 -25 33 -32 33 -78 0 -110 -23 -24 -28 -25 -175 -25
-147 0 -152 -1 -175 -25 -24 -23 -25 -28 -25 -175 0 -147 -1 -152 -25 -175
-15 -16 -36 -25 -55 -25 -19 0 -40 9 -55 25 -24 23 -25 28 -25 175 0 147 -1
152 -25 175 -23 24 -28 25 -175 25 -147 0 -152 1 -175 25 -16 15 -25 36 -25
55 0 19 9 40 25 55 23 24 28 25 175 25 147 0 152 1 175 25 24 23 25 28 25 175
0 147 1 152 25 175 15 16 36 25 55 25 19 0 40 -9 55 -25z"/>
<path d="M3750 2459 c-95 -43 -144 -117 -144 -219 0 -145 118 -252 260 -237
165 17 263 192 190 341 -57 116 -192 167 -306 115z m145 -164 c70 -69 -31
-182 -102 -115 -29 27 -37 56 -23 90 21 52 86 65 125 25z"/>
<path d="M2345 2375 c-16 -15 -25 -36 -25 -55 0 -19 9 -40 25 -55 24 -25 26
-25 215 -25 189 0 191 0 215 25 16 15 25 36 25 55 0 19 -9 40 -25 55 -24 25
-26 25 -215 25 -189 0 -191 0 -215 -25z"/>
<path d="M3350 2059 c-95 -43 -144 -117 -144 -219 0 -145 118 -252 260 -237
165 17 263 192 190 341 -57 116 -192 167 -306 115z m145 -164 c70 -69 -31
-182 -102 -115 -29 27 -37 56 -23 90 21 52 86 65 125 25z"/>
<path d="M4150 2059 c-95 -43 -144 -117 -144 -219 0 -145 118 -252 260 -237
165 17 263 192 190 341 -57 116 -192 167 -306 115z m145 -164 c70 -69 -31
-182 -102 -115 -29 27 -37 56 -23 90 21 52 86 65 125 25z"/>
<path d="M3750 1660 c-96 -45 -144 -118 -144 -220 0 -240 313 -330 439 -126
27 44 30 58 30 126 0 68 -3 82 -30 126 -62 99 -194 141 -295 94z m145 -165
c70 -69 -31 -182 -102 -115 -29 27 -37 56 -23 90 21 52 86 65 125 25z"/>
</g>
</svg>
