<?xml version="1.0" standalone="no"?>
<!DOCTYPE svg PUBLIC "-//W3C//DTD SVG 20010904//EN"
 "http://www.w3.org/TR/2001/REC-SVG-20010904/DTD/svg10.dtd">
<svg version="1.0" xmlns="http://www.w3.org/2000/svg"
 width="512.000000pt" height="512.000000pt" viewBox="0 0 512.000000 512.000000"
 preserveAspectRatio="xMidYMid meet">

<g transform="translate(0.000000,512.000000) scale(0.100000,-0.100000)"
fill="#000000" stroke="none">
<path d="M25 4215 c-16 -15 -25 -36 -25 -55 0 -19 9 -40 25 -55 l24 -25 2431
0 2431 0 24 -25 c30 -29 32 -74 6 -106 l-19 -24 -1159 -5 -1160 -5 -49 -30
c-74 -46 -108 -108 -113 -207 l-3 -78 -1062 -2 -1061 -3 -50 -25 c-64 -31
-124 -91 -155 -155 l-25 -50 0 -1045 0 -1045 34 -63 c38 -70 69 -100 145 -140
l51 -27 545 -3 544 -3 82 -79 82 -80 952 0 952 0 82 80 82 79 544 3 545 3 51
27 c76 40 107 70 145 140 l34 63 0 1045 0 1045 -25 50 c-31 64 -91 124 -155
155 l-50 25 -1062 3 -1063 2 0 56 c0 45 4 59 25 79 l24 25 1132 0 c859 0 1142
3 1173 12 86 26 166 136 166 228 0 92 -80 202 -166 228 -32 9 -593 12 -2473
12 l-2432 0 -24 -25z m4701 -801 c15 -11 37 -33 48 -48 21 -27 21 -36 24 -977
l2 -949 -2280 0 -2280 0 0 934 c0 638 3 944 11 963 14 37 47 73 84 89 25 11
406 13 2197 11 l2167 -2 27 -21z m-3521 -2174 l40 -41 -451 3 -451 3 -36 28
c-20 15 -37 32 -37 38 0 5 172 9 448 9 l448 0 39 -40z m2320 -80 l-120 -120
-885 0 -885 0 -120 120 -120 120 1125 0 1125 0 -120 -120z m1245 111 c0 -6
-17 -23 -37 -38 l-36 -28 -451 -3 -451 -3 40 41 39 40 448 0 c276 0 448 -4
448 -9z"/>
<path d="M559 3270 c-9 -5 -22 -23 -29 -40 -33 -79 65 -146 125 -85 65 64 -17
171 -96 125z"/>
<path d="M1039 3270 c-9 -5 -22 -23 -29 -40 -33 -79 65 -146 125 -85 65 64
-17 171 -96 125z"/>
<path d="M1519 3270 c-9 -5 -22 -23 -29 -40 -33 -79 65 -146 125 -85 65 64
-17 171 -96 125z"/>
<path d="M1999 3270 c-9 -5 -22 -23 -29 -40 -33 -79 65 -146 125 -85 65 64
-17 171 -96 125z"/>
<path d="M2482 3273 c-7 -3 -19 -18 -28 -35 -42 -81 58 -157 121 -93 63 62 -9
162 -93 128z"/>
<path d="M2962 3273 c-7 -3 -19 -18 -28 -35 -42 -81 58 -157 121 -93 63 62 -9
162 -93 128z"/>
<path d="M3442 3273 c-7 -3 -19 -18 -28 -35 -42 -81 58 -157 121 -93 63 62 -9
162 -93 128z"/>
<path d="M3922 3273 c-7 -3 -19 -18 -28 -35 -42 -81 58 -157 121 -93 63 62 -9
162 -93 128z"/>
<path d="M4393 3265 c-41 -29 -38 -98 6 -132 26 -20 70 -15 96 12 69 68 -23
175 -102 120z"/>
<path d="M425 2935 c-24 -23 -25 -28 -25 -175 0 -147 1 -152 25 -175 23 -24
28 -25 175 -25 147 0 152 1 175 25 24 23 25 28 25 175 0 147 -1 152 -25 175
-23 24 -28 25 -175 25 -147 0 -152 -1 -175 -25z m215 -175 l0 -40 -40 0 -40 0
0 40 0 40 40 0 40 0 0 -40z"/>
<path d="M905 2935 c-24 -23 -25 -28 -25 -175 0 -147 1 -152 25 -175 23 -24
28 -25 175 -25 147 0 152 1 175 25 24 23 25 28 25 175 0 147 -1 152 -25 175
-23 24 -28 25 -175 25 -147 0 -152 -1 -175 -25z m215 -175 l0 -40 -40 0 -40 0
0 40 0 40 40 0 40 0 0 -40z"/>
<path d="M1385 2935 c-24 -23 -25 -28 -25 -175 0 -147 1 -152 25 -175 23 -24
28 -25 175 -25 147 0 152 1 175 25 24 23 25 28 25 175 0 147 -1 152 -25 175
-23 24 -28 25 -175 25 -147 0 -152 -1 -175 -25z m215 -175 l0 -40 -40 0 -40 0
0 40 0 40 40 0 40 0 0 -40z"/>
<path d="M1865 2935 c-24 -23 -25 -28 -25 -175 0 -147 1 -152 25 -175 23 -24
28 -25 175 -25 147 0 152 1 175 25 24 23 25 28 25 175 0 147 -1 152 -25 175
-23 24 -28 25 -175 25 -147 0 -152 -1 -175 -25z m215 -175 l0 -40 -40 0 -40 0
0 40 0 40 40 0 40 0 0 -40z"/>
<path d="M2345 2935 c-24 -23 -25 -28 -25 -175 0 -147 1 -152 25 -175 23 -24
28 -25 175 -25 147 0 152 1 175 25 24 23 25 28 25 175 0 147 -1 152 -25 175
-23 24 -28 25 -175 25 -147 0 -152 -1 -175 -25z m215 -175 l0 -40 -40 0 -40 0
0 40 0 40 40 0 40 0 0 -40z"/>
<path d="M2825 2935 c-24 -23 -25 -28 -25 -175 0 -147 1 -152 25 -175 23 -24
28 -25 175 -25 147 0 152 1 175 25 24 23 25 28 25 175 0 147 -1 152 -25 175
-23 24 -28 25 -175 25 -147 0 -152 -1 -175 -25z m215 -175 l0 -40 -40 0 -40 0
0 40 0 40 40 0 40 0 0 -40z"/>
<path d="M3305 2935 c-24 -23 -25 -28 -25 -175 0 -147 1 -152 25 -175 23 -24
28 -25 175 -25 147 0 152 1 175 25 24 23 25 28 25 175 0 147 -1 152 -25 175
-23 24 -28 25 -175 25 -147 0 -152 -1 -175 -25z m215 -175 l0 -40 -40 0 -40 0
0 40 0 40 40 0 40 0 0 -40z"/>
<path d="M3785 2935 c-24 -23 -25 -28 -25 -175 0 -147 1 -152 25 -175 23 -24
28 -25 175 -25 147 0 152 1 175 25 24 23 25 28 25 175 0 147 -1 152 -25 175
-23 24 -28 25 -175 25 -147 0 -152 -1 -175 -25z m215 -175 l0 -40 -40 0 -40 0
0 40 0 40 40 0 40 0 0 -40z"/>
<path d="M4265 2935 l-25 -24 0 -391 0 -391 25 -24 c23 -24 28 -25 175 -25
147 0 152 1 175 25 l25 24 0 391 0 391 -25 24 c-23 24 -28 25 -175 25 -147 0
-152 -1 -175 -25z m215 -415 l0 -280 -40 0 -40 0 0 280 0 280 40 0 40 0 0
-280z"/>
<path d="M425 2455 c-24 -23 -25 -28 -25 -175 0 -147 1 -152 25 -175 l24 -25
391 0 391 0 24 25 c24 23 25 28 25 175 0 147 -1 152 -25 175 l-24 25 -391 0
-391 0 -24 -25z m695 -175 l0 -40 -280 0 -280 0 0 40 0 40 280 0 280 0 0 -40z"/>
<path d="M1385 2455 c-24 -23 -25 -28 -25 -175 0 -147 1 -152 25 -175 23 -24
28 -25 175 -25 147 0 152 1 175 25 24 23 25 28 25 175 0 147 -1 152 -25 175
-23 24 -28 25 -175 25 -147 0 -152 -1 -175 -25z m215 -175 l0 -40 -40 0 -40 0
0 40 0 40 40 0 40 0 0 -40z"/>
<path d="M1865 2455 c-24 -23 -25 -28 -25 -175 0 -147 1 -152 25 -175 23 -24
28 -25 175 -25 147 0 152 1 175 25 24 23 25 28 25 175 0 147 -1 152 -25 175
-23 24 -28 25 -175 25 -147 0 -152 -1 -175 -25z m215 -175 l0 -40 -40 0 -40 0
0 40 0 40 40 0 40 0 0 -40z"/>
<path d="M2345 2455 c-24 -23 -25 -28 -25 -175 0 -147 1 -152 25 -175 23 -24
28 -25 175 -25 147 0 152 1 175 25 24 23 25 28 25 175 0 147 -1 152 -25 175
-23 24 -28 25 -175 25 -147 0 -152 -1 -175 -25z m215 -175 l0 -40 -40 0 -40 0
0 40 0 40 40 0 40 0 0 -40z"/>
<path d="M2825 2455 c-24 -23 -25 -28 -25 -175 0 -147 1 -152 25 -175 23 -24
28 -25 175 -25 147 0 152 1 175 25 24 23 25 28 25 175 0 147 -1 152 -25 175
-23 24 -28 25 -175 25 -147 0 -152 -1 -175 -25z m215 -175 l0 -40 -40 0 -40 0
0 40 0 40 40 0 40 0 0 -40z"/>
<path d="M3305 2455 c-24 -23 -25 -28 -25 -175 0 -147 1 -152 25 -175 23 -24
28 -25 175 -25 147 0 152 1 175 25 24 23 25 28 25 175 0 147 -1 152 -25 175
-23 24 -28 25 -175 25 -147 0 -152 -1 -175 -25z m215 -175 l0 -40 -40 0 -40 0
0 40 0 40 40 0 40 0 0 -40z"/>
<path d="M3785 2455 c-24 -23 -25 -28 -25 -175 0 -147 1 -152 25 -175 23 -24
28 -25 175 -25 147 0 152 1 175 25 24 23 25 28 25 175 0 147 -1 152 -25 175
-23 24 -28 25 -175 25 -147 0 -152 -1 -175 -25z m215 -175 l0 -40 -40 0 -40 0
0 40 0 40 40 0 40 0 0 -40z"/>
<path d="M425 1975 c-24 -23 -25 -28 -25 -175 0 -147 1 -152 25 -175 23 -24
28 -25 175 -25 147 0 152 1 175 25 24 23 25 28 25 175 0 147 -1 152 -25 175
-23 24 -28 25 -175 25 -147 0 -152 -1 -175 -25z m215 -175 l0 -40 -40 0 -40 0
0 40 0 40 40 0 40 0 0 -40z"/>
<path d="M905 1975 c-24 -23 -25 -28 -25 -175 0 -147 1 -152 25 -175 23 -24
28 -25 175 -25 206 0 200 -6 200 200 0 147 -1 152 -25 175 -23 24 -28 25 -175
25 -147 0 -152 -1 -175 -25z m215 -175 l0 -40 -40 0 -40 0 0 40 0 40 40 0 40
0 0 -40z"/>
<path d="M1385 1975 c-24 -23 -25 -28 -25 -175 0 -147 1 -152 25 -175 l24 -25
1111 0 1111 0 24 25 c24 23 25 28 25 175 0 147 -1 152 -25 175 l-24 25 -1111
0 -1111 0 -24 -25z m2135 -175 l0 -40 -1000 0 -1000 0 0 40 0 40 1000 0 1000
0 0 -40z"/>
<path d="M3785 1975 c-24 -23 -25 -28 -25 -175 0 -147 1 -152 25 -175 23 -24
28 -25 175 -25 147 0 152 1 175 25 24 23 25 28 25 175 0 147 -1 152 -25 175
-23 24 -28 25 -175 25 -147 0 -152 -1 -175 -25z m215 -175 l0 -40 -40 0 -40 0
0 40 0 40 40 0 40 0 0 -40z"/>
<path d="M4265 1975 c-24 -23 -25 -28 -25 -175 0 -147 1 -152 25 -175 23 -24
28 -25 175 -25 147 0 152 1 175 25 24 23 25 28 25 175 0 147 -1 152 -25 175
-23 24 -28 25 -175 25 -147 0 -152 -1 -175 -25z m215 -175 l0 -40 -40 0 -40 0
0 40 0 40 40 0 40 0 0 -40z"/>
</g>
</svg>
